<svg id="Group_10" data-name="Group 10" xmlns="http://www.w3.org/2000/svg" viewBox="0 0 73.539 73.5">
  <defs>
    <style>
      .cls-1 {
        fill: #2d4b67;
      }

      .cls-2 {
        fill: #34b1e7;
      }
    </style>
  </defs>
  <path id="Path_24" data-name="Path 24" class="cls-1" d="M18.5,50.123H37.711V46.795H20.028V3.328H37.711a8.635,8.635,0,0,1,3.729.882l3.649,1.8V35.046h3.328V7.458L52.227,4.13a8.437,8.437,0,0,1,3.569-.8H73.479V20.049h3.328V1.8A1.8,1.8,0,0,0,75,0H55.8a11.736,11.736,0,0,0-5.213,1.243,1.883,1.883,0,0,0-.361.241L47.7,3.649c-.08-.04-.12-.08-.2-.12L42.924,1.243A11.866,11.866,0,0,0,37.711,0H18.5a1.8,1.8,0,0,0-1.8,1.8V48.318A1.8,1.8,0,0,0,18.5,50.123Z" transform="translate(-10.004)"/>
  <path id="Path_25" data-name="Path 25" class="cls-1" d="M3.328,11.668H5.012V8.3H1.684A1.694,1.694,0,0,0,0,9.984V58.423a1.694,1.694,0,0,0,1.684,1.684H28.43V56.779H3.328Z" transform="translate(0 -4.972)"/>
  <path id="Path_26" data-name="Path 26" class="cls-1" d="M174.228,8.3H170.9v3.328h1.684V29.993h3.328V9.944A1.714,1.714,0,0,0,174.228,8.3Z" transform="translate(-102.372 -4.972)"/>
  <rect id="Rectangle_47" data-name="Rectangle 47" class="cls-1" width="16.721" height="3.328" transform="translate(13.353 6.696)"/>
  <rect id="Rectangle_48" data-name="Rectangle 48" class="cls-1" width="16.721" height="3.328" transform="translate(13.353 13.353)"/>
  <rect id="Rectangle_49" data-name="Rectangle 49" class="cls-1" width="16.721" height="3.328" transform="translate(13.353 20.049)"/>
  <rect id="Rectangle_50" data-name="Rectangle 50" class="cls-1" width="16.721" height="3.328" transform="translate(13.353 26.745)"/>
  <rect id="Rectangle_51" data-name="Rectangle 51" class="cls-1" width="16.721" height="3.328" transform="translate(13.353 33.402)"/>
  <rect id="Rectangle_52" data-name="Rectangle 52" class="cls-1" width="16.721" height="3.328" transform="translate(43.426 6.696)"/>
  <path id="Path_27" data-name="Path 27" class="cls-2" d="M109.868,46.733a4.866,4.866,0,0,0-2.727.321,4.945,4.945,0,0,0-8.02-2.526l-.12.08a5.174,5.174,0,0,0-5.012-1V38.312A5.023,5.023,0,0,0,88.937,33.3a5.982,5.982,0,0,0-.842.08,5.163,5.163,0,0,0-4.17,5.133V66.581L76.186,58.8a5.046,5.046,0,0,0-7.1.04,6.969,6.969,0,0,0-.521.6,5.167,5.167,0,0,0,.642,6.576L83.965,80.776v2.646a4.025,4.025,0,0,0,.16.962,1.318,1.318,0,0,0-.16.682v6.7a1.694,1.694,0,0,0,1.684,1.684h26.745a1.694,1.694,0,0,0,1.684-1.684v-6.7a1.694,1.694,0,0,0-1.684-1.684h-.04a8.164,8.164,0,0,0,1.724-5.012V51.906A5.314,5.314,0,0,0,109.868,46.733Zm.842,43.386H87.333V86.791H110.71Zm-23.377-6.7V80.095a1.542,1.542,0,0,0-.481-1.163L71.615,63.694a1.779,1.779,0,0,1-.321-2.245,1.672,1.672,0,0,1,1.243-.722h.12a1.7,1.7,0,0,1,1.2.481L84.486,71.834a1.7,1.7,0,0,0,2.366,0,1.632,1.632,0,0,0,.481-1.2V38.513A1.782,1.782,0,0,1,88.7,36.668a1.663,1.663,0,0,1,1.363.361,1.769,1.769,0,0,1,.6,1.283V60.045h3.328V48.337a1.684,1.684,0,0,1,3.368,0V58.361h3.328V48.337a1.694,1.694,0,0,1,1.684-1.684.683.683,0,0,1,.281.04,1.812,1.812,0,0,1,1.363,1.845v8.14h3.328V51.705a1.694,1.694,0,0,1,1.684-1.684.682.682,0,0,1,.281.04,1.812,1.812,0,0,1,1.363,1.845V78.451a5.014,5.014,0,0,1-5.012,5.012H87.333Z" transform="translate(-40.538 -19.947)"/>
</svg>
