<svg id="Group_12" data-name="Group 12" xmlns="http://www.w3.org/2000/svg" viewBox="0 0 68.613 73.5">
  <defs>
    <style>
      .cls-1 {
        fill: #2d4b67;
      }

      .cls-2 {
        fill: #34b1e7;
      }
    </style>
  </defs>
  <path id="Path_30" data-name="Path 30" class="cls-1" d="M122.3,123.164a1.663,1.663,0,0,0,1.127-.473,1.458,1.458,0,0,0,.473-1.127A1.552,1.552,0,0,0,122.337,120h-7.274a1.564,1.564,0,0,0,0,3.128H122.3Z" transform="translate(-72.222 -76.358)"/>
  <path id="Path_31" data-name="Path 31" class="cls-1" d="M123.164,24.337V18.264A1.552,1.552,0,0,0,121.6,16.7a1.583,1.583,0,0,0-1.6,1.564v6.073a6.449,6.449,0,0,0,6.437,6.437h10.547V53.432a1.564,1.564,0,0,0,3.128,0V29.174a1.552,1.552,0,0,0-1.564-1.564H126.437A3.283,3.283,0,0,1,123.164,24.337Z" transform="translate(-76.358 -10.627)"/>
  <path id="Path_32" data-name="Path 32" class="cls-1" d="M117.974,80h-9.71a1.564,1.564,0,0,0,0,3.128h9.71a1.564,1.564,0,0,0,0-3.128Z" transform="translate(-67.895 -50.905)"/>
  <path id="Path_33" data-name="Path 33" class="cls-1" d="M82.3,83.164a1.663,1.663,0,0,0,1.127-.473,1.458,1.458,0,0,0,.473-1.127A1.552,1.552,0,0,0,82.337,80H75.064a1.564,1.564,0,1,0,0,3.128H82.3Z" transform="translate(-46.769 -50.905)"/>
  <path id="Path_34" data-name="Path 34" class="cls-1" d="M74.964,100a1.564,1.564,0,0,0,0,3.128H77.4a1.564,1.564,0,1,0,0-3.128Z" transform="translate(-46.706 -63.632)"/>
  <path id="Path_35" data-name="Path 35" class="cls-1" d="M74.962,63.228H87.072a1.564,1.564,0,0,0,0-3.128H74.962a1.564,1.564,0,1,0,0,3.128Z" transform="translate(-46.703 -38.243)"/>
  <path id="Path_36" data-name="Path 36" class="cls-1" d="M94.964,103.228h12.111a1.564,1.564,0,0,0,0-3.128H94.964a1.564,1.564,0,0,0,0,3.128Z" transform="translate(-59.432 -63.695)"/>
  <path id="Path_37" data-name="Path 37" class="cls-1" d="M114.964,140a1.564,1.564,0,1,0,0,3.128H117.4a1.564,1.564,0,1,0,0-3.128Z" transform="translate(-72.159 -89.085)"/>
  <path id="Path_38" data-name="Path 38" class="cls-1" d="M84.638,120H74.964a1.564,1.564,0,0,0,0,3.128h9.71a1.552,1.552,0,0,0,1.564-1.564A1.583,1.583,0,0,0,84.638,120Z" transform="translate(-46.706 -76.358)"/>
  <path id="Path_39" data-name="Path 39" class="cls-1" d="M84.638,140H74.964a1.564,1.564,0,1,0,0,3.128h9.71a1.552,1.552,0,0,0,1.564-1.564A1.583,1.583,0,0,0,84.638,140Z" transform="translate(-46.706 -89.085)"/>
  <path id="Path_40" data-name="Path 40" class="cls-2" d="M139.094,130.712l-2.437-2.437a4.941,4.941,0,0,0-7.092,0l-15.893,15.893a1.6,1.6,0,0,0-.473,1.127v7.274a1.552,1.552,0,0,0,1.564,1.564h7.274a1.663,1.663,0,0,0,1.127-.473l15.893-15.893A4.752,4.752,0,0,0,139.094,130.712Zm-5.783,8.4-10,10-1.418-1.418,10-10Zm-15.056,4.946,10-10,1.418,1.418-10,10Zm2.473,6.91H116.4v-4.328Zm16.147-15.42-1.309,1.309-5.055-5.055,1.309-1.309a1.68,1.68,0,0,1,2.618,0l2.437,2.437A1.68,1.68,0,0,1,136.876,135.549Z" transform="translate(-72.031 -80.669)"/>
  <path id="Path_41" data-name="Path 41" class="cls-1" d="M37.932,70.3H6.437a3.26,3.26,0,0,1-3.273-3.273V6.437A3.26,3.26,0,0,1,6.437,3.164h38.15L56.262,14.838a1.6,1.6,0,0,0,1.127.473,1.663,1.663,0,0,0,1.127-.473,1.6,1.6,0,0,0,.473-1.127,1.663,1.663,0,0,0-.473-1.127L46.333.473A1.6,1.6,0,0,0,45.206,0H6.437A6.426,6.426,0,0,0,0,6.437V67.063A6.449,6.449,0,0,0,6.437,73.5H37.968a1.552,1.552,0,0,0,1.564-1.564A1.646,1.646,0,0,0,37.932,70.3Z"/>
  <path id="Path_42" data-name="Path 42" class="cls-1" d="M84.638,160H74.964a1.564,1.564,0,1,0,0,3.128h9.71a1.552,1.552,0,0,0,1.564-1.564A1.583,1.583,0,0,0,84.638,160Z" transform="translate(-46.706 -101.811)"/>
  <path id="Path_43" data-name="Path 43" class="cls-1" d="M43.8,61.564A1.552,1.552,0,0,0,42.237,60H34.964A1.552,1.552,0,0,0,33.4,61.564v7.274A1.552,1.552,0,0,0,34.964,70.4h7.274A1.552,1.552,0,0,0,43.8,68.837Zm-3.164,1.6v4.11h-4.11v-4.11Z" transform="translate(-21.253 -38.179)"/>
  <path id="Path_44" data-name="Path 44" class="cls-1" d="M33.3,148.837a1.552,1.552,0,0,0,1.564,1.564h7.274a1.552,1.552,0,0,0,1.564-1.564v-7.274A1.552,1.552,0,0,0,42.137,140H34.864a1.552,1.552,0,0,0-1.564,1.564Zm3.164-1.564v-4.11h4.11v4.11Z" transform="translate(-21.189 -89.085)"/>
  <path id="Path_45" data-name="Path 45" class="cls-1" d="M37.253,110.489H37.4a1.519,1.519,0,0,0,1.164-.691l4.837-7.274a1.574,1.574,0,0,0-2.619-1.746L37,106.452,35.944,105.4a1.6,1.6,0,0,0-1.127-.473,1.663,1.663,0,0,0-1.127.473,1.559,1.559,0,0,0,0,2.218l2.437,2.437A1.9,1.9,0,0,0,37.253,110.489Z" transform="translate(-21.142 -63.683)"/>
</svg>
