<svg id="Group_9" data-name="Group 9" xmlns="http://www.w3.org/2000/svg" viewBox="0 0 72.049 73.781">
  <defs>
    <style>
      .cls-1 {
        fill: #2d4b67;
      }

      .cls-2 {
        fill: #34b1e7;
      }
    </style>
  </defs>
  <path id="Path_20" data-name="Path 20" class="cls-1" d="M66.9,0H5.146A5.148,5.148,0,0,0,0,5.146V53.189a5.148,5.148,0,0,0,5.146,5.146H41.168V54.918H5.146a1.739,1.739,0,0,1-1.729-1.729V5.146A1.739,1.739,0,0,1,5.146,3.417H66.9a1.739,1.739,0,0,1,1.729,1.729V32.605h3.417V5.146A5.148,5.148,0,0,0,66.9,0Z"/>
  <path id="Path_21" data-name="Path 21" class="cls-1" d="M74.994,37.284V20.117A3.409,3.409,0,0,0,71.577,16.7H20.117A3.409,3.409,0,0,0,16.7,20.117V57.868a3.409,3.409,0,0,0,3.417,3.417H47.576V57.868H20.117V20.117h51.46V37.284Z" transform="translate(-9.825 -9.825)"/>
  <path id="Path_22" data-name="Path 22" class="cls-2" d="M115.438,75a15.419,15.419,0,0,0-6.875,29.229v11.939a1.739,1.739,0,0,0,1.729,1.729,1.6,1.6,0,0,0,.947-.288l4.2-2.8,4.2,2.8a1.694,1.694,0,0,0,2.388-.494,1.6,1.6,0,0,0,.288-.947V104.229A15.418,15.418,0,0,0,115.438,75Zm3.417,30.876v7.081l-2.47-1.647a1.752,1.752,0,0,0-1.894,0l-2.47,1.647v-7.081Zm-3.417-3.417a12.021,12.021,0,1,1,12.021-12.021A12.035,12.035,0,0,1,115.438,102.459Z" transform="translate(-58.832 -44.124)"/>
  <path id="Path_23" data-name="Path 23" class="cls-2" d="M125.263,91.7a8.563,8.563,0,1,0,8.563,8.563A8.556,8.556,0,0,0,125.263,91.7Zm0,13.709a5.146,5.146,0,1,1,5.146-5.146A5.148,5.148,0,0,1,125.263,105.409Z" transform="translate(-68.657 -53.949)"/>
  <rect id="Rectangle_44" data-name="Rectangle 44" class="cls-1" width="13.709" height="3.417" transform="translate(27.459 17.167)"/>
  <rect id="Rectangle_45" data-name="Rectangle 45" class="cls-1" width="30.876" height="3.417" transform="translate(18.855 25.73)"/>
</svg>
